<svg xmlns="http://www.w3.org/2000/svg" viewBox="0 0 360 220" width="360" height="220" role="img" aria-labelledby="title desc">
  <title id="title">Particle Blast</title>
  <desc id="desc">Particle Blast preset (particle-blast): Tap or swipe to fire particle bursts across the host canvas. Recommended transport: PartyKit · WebRTC.</desc>
  <style>
    .bg{fill:#f5f5f5}.surface{fill:#ffffff}.hair{stroke:#e5e5e5}.strong{stroke:#cfcfcf}
    .ink{fill:#0a0a0a}.ink-s{stroke:#0a0a0a}.ink2{fill:#3d3d3d}.muted{fill:#666666}.faint{fill:#999999}
    .acc{fill:#0062cc}.acc-s{stroke:#0062cc}
    text{font-family:"Outfit",-apple-system,BlinkMacSystemFont,"Segoe UI","Hiragino Sans","Noto Sans JP",sans-serif}
    .mono{font-family:ui-monospace,SFMono-Regular,Menlo,monospace}
    @media (prefers-color-scheme: dark){
      .bg{fill:#141414}.surface{fill:#111111}.hair{stroke:#262626}.strong{stroke:#3a3a3a}
      .ink{fill:#f2f2f2}.ink-s{stroke:#f2f2f2}.ink2{fill:#d4d4d4}.muted{fill:#a3a3a3}.faint{fill:#6b6b6b}
      .acc{fill:#3b9cff}.acc-s{stroke:#3b9cff}
    }
  </style>
  <rect class="bg" x="0" y="0" width="360" height="220" rx="0"/>
  <rect class="surface hair" x="20.5" y="20.5" width="55" height="55" rx="6" stroke-width="1"/>
  <g transform="translate(20 20)"><g class="ink-s" fill="none" stroke-width="1.5" stroke-linecap="round"><path d="M28 17 V11"/><path d="M28 39 V45"/><path d="M17 28 H11"/><path d="M39 28 H45"/><path d="M20 20 L16 16"/><path d="M36 36 L40 40"/><path d="M36 20 L40 16"/><path d="M20 36 L16 40"/></g><circle class="acc" cx="28" cy="28" r="4"/></g>
  <text class="faint mono" x="340" y="34" font-size="10" letter-spacing="1" text-anchor="end">particle-blast</text>
  <text class="ink" x="20" y="114" font-size="20" font-weight="600" letter-spacing="-0.4">Particle Blast</text>
  <text class="muted" x="20" y="140" font-size="13.5">Tap or swipe to fire particle bursts</text>
  <text class="muted" x="20" y="159" font-size="13.5">across the host canvas.</text>
  <path class="hair" d="M20 178.5 H340" stroke-width="1"/>
  <text class="faint mono" x="20" y="201" font-size="10" letter-spacing="1.5">RECOMMENDED</text>
  <text class="ink2" x="340" y="201" font-size="12.5" font-weight="500" text-anchor="end">PartyKit · WebRTC</text>
</svg>
